<svg id="Layer_2" data-name="Layer 2" xmlns="http://www.w3.org/2000/svg" viewBox="0 0 710.07 752.06"><defs><style>.cls-1{fill:#17a84b;}.cls-2{fill:#077fa2;}.cls-3{fill:none;}</style></defs><path class="cls-1" d="M994.5,1533.17v156.66H984.11c-33.74-.29-59.09-20.57-64.88-52.95a154.28,154.28,0,0,1-2.34-21.45,23.67,23.67,0,0,0-19.31-24.07,425.12,425.12,0,0,1-66.49-24.87c-52.77-26.4-121.94-83.84-158.09-160.76s-33.48-157.18-33.5-172.58c4.7-113.94,61.64-217.36,178.59-284.75,44.74-25.73,88.53-2.8,98.62,47.88,7.14,36.31-9.83,58.12-38.38,77.62-121.73,83.61-131.07,235.86-31.93,328.76,15.6,14,34.32,26.92,53.1,37.51,4,2.29,9.22,5.37,15.8,8.67a62.65,62.65,0,0,0-1.41,13.27C913.89,1501.31,950,1533.08,994.5,1533.17Z" transform="translate(-639.46 -937.77)"/><path class="cls-2" d="M1316,1405.73c-36.15,76.92-105.32,134.36-158.09,160.76a424.74,424.74,0,0,1-66.49,24.87,23.67,23.67,0,0,0-19.31,24.07,152.78,152.78,0,0,1-2.34,21.45c-5.79,32.38-31.14,52.66-64.88,52.95H994.5V1533.17h.18c44.62,0,80.79-31.81,80.79-71.06a63,63,0,0,0-1.45-13.44c6.42-3.23,11.55-6.25,15.47-8.5,18.78-10.59,37.5-23.5,53.1-37.51,99.14-92.9,89.8-245.15-31.93-328.76-28.54-19.5-45.52-41.31-38.38-77.62,10.09-50.68,53.88-73.61,98.62-47.88,116.95,67.39,173.89,170.81,178.59,284.75C1349.47,1248.55,1352.16,1328.78,1316,1405.73Z" transform="translate(-639.46 -937.77)"/><path class="cls-1" d="M890.31,1150.33c-36.45,0-66,41.19-66,92s29.55,92,66,92,66-41.19,66-92S926.76,1150.33,890.31,1150.33Zm-27,153.34c-11.59,0-21-11.2-21-25s9.4-25,21-25,21,11.19,21,25S874.92,1303.67,863.32,1303.67Zm27.35-46.34c-5.71,0-10.34-5.52-10.34-12.33s4.63-12.33,10.34-12.33S901,1238.19,901,1245,896.37,1257.33,890.67,1257.33Z" transform="translate(-639.46 -937.77)"/><path class="cls-2" d="M1098.68,1150.33c-36.45,0-66,41.19-66,92s29.55,92,66,92,66-41.19,66-92S1135.13,1150.33,1098.68,1150.33Zm-26,153.34c-11.6,0-21-11.2-21-25s9.39-25,21-25,21,11.19,21,25S1084.25,1303.67,1072.66,1303.67Zm27.34-46.34c-5.71,0-10.33-5.52-10.33-12.33s4.62-12.33,10.33-12.33,10.33,5.52,10.33,12.33S1105.71,1257.33,1100,1257.33Z" transform="translate(-639.46 -937.77)"/><path class="cls-1" d="M995.22,1360.33c-36.57,0-66.22,21.07-66.22,47.06a34.32,34.32,0,0,0,1.87,11.14,40.55,40.55,0,0,0,7.82,13.37,57.62,57.62,0,0,0,15.68,12.52c11.25,6.27,25.44,10,40.85,10,15,0,28.91-3.57,40-9.58a58.26,58.26,0,0,0,15.88-12.25,41.6,41.6,0,0,0,8.13-13.2,34.52,34.52,0,0,0,2.18-12C1061.44,1381.4,1031.79,1360.33,995.22,1360.33Zm-.54,74.78c-8.46,0-16.08-2.73-21.37-7.09-4.67-3.84-7.52-9-7.52-14.57a16.27,16.27,0,0,1,.55-4.19c2.59-10,14.3-17.48,28.34-17.48s25.75,7.52,28.34,17.48a16.27,16.27,0,0,1,.55,4.19c0,5.61-2.85,10.73-7.52,14.57C1010.76,1432.38,1003.15,1435.11,994.68,1435.11Z" transform="translate(-639.46 -937.77)"/><path class="cls-2" d="M1059.55,1455.21a54.14,54.14,0,0,0-8.42-22.6,63.5,63.5,0,0,0-28.11-23.35,16.27,16.27,0,0,1,.55,4.19c0,5.61-2.85,10.73-7.52,14.57a42.67,42.67,0,0,1,19.2,16.84,34,34,0,0,1,4.76,16.9v.35c0,21.32-20.33,38.67-45.33,38.67s-45.33-17.35-45.33-38.67v-.25a34.12,34.12,0,0,1,5-17.44,42.78,42.78,0,0,1,18.94-16.4c-4.67-3.84-7.52-9-7.52-14.57a16.27,16.27,0,0,1,.55-4.19,63.79,63.79,0,0,0-27.65,22.64,54.27,54.27,0,0,0-8.9,23.45,52.1,52.1,0,0,0-.44,6.76c0,32.35,29.31,58.67,65.33,58.67s65.33-26.32,65.33-58.67A50.83,50.83,0,0,0,1059.55,1455.21Z" transform="translate(-639.46 -937.77)"/><path class="cls-3" d="M1059.26,1419.41c-14.74-17.22-38.18-28.35-64.58-28.35-25.94,0-49,10.75-63.81,27.47a67.08,67.08,0,0,0-15.57,30.31c4.27,2.14,9.09,4.36,14.49,6.51a180.57,180.57,0,0,0,19.56,6.51,189.24,189.24,0,0,0,33,5.81c7.49.65,12.17.62,12.17.62s4.67,0,12.16-.62a187.52,187.52,0,0,0,33.35-5.91,177.74,177.74,0,0,0,19.54-6.55c5.4-2.17,10.22-4.4,14.47-6.54A67,67,0,0,0,1059.26,1419.41Zm-64.58-27.63c14.05,0,25.75,7.52,28.34,17.48a16.27,16.27,0,0,1,.55,4.19c0,5.61-2.85,10.73-7.52,14.57-5.29,4.36-12.9,7.09-21.37,7.09s-16.08-2.73-21.37-7.09c-4.67-3.84-7.52-9-7.52-14.57a16.27,16.27,0,0,1,.55-4.19C968.93,1399.3,980.64,1391.78,994.68,1391.78Z" transform="translate(-639.46 -937.77)"/></svg>