<svg id="Capa_1" enable-background="new 0 0 512 512" height="512" viewBox="0 0 512 512" width="512" xmlns="http://www.w3.org/2000/svg"><g><g><g><g><g><g><g><path d="m23.584 363.473c-15.137-32.68-23.584-69.09-23.584-107.473 0-141.385 114.615-256 256-256s256 114.615 256 256-114.615 256-256 256c-66.851 0-127.718-25.625-173.313-67.587z" fill="#7584f2"/></g></g></g></g></g></g><path d="m256 512c141.385 0 256-114.615 256-256 0-11.641-.777-23.1-2.282-34.329l-114.442-114.442-278.552 142.771 74.941 74.941-108.978 119.472c45.595 41.962 106.462 67.587 173.313 67.587z" fill="#3f51d1"/><g><path d="m367.179 295.037-90.466 48.314c-6.989 3.733-15.021 5.038-22.833 3.71l-47.389-8.057 72.427-32.468c6.673-2.991 10.025-10.525 7.78-17.485-2.28-7.067-9.577-11.224-16.819-9.58l-137.681 31.251c-7.235 1.642-14.188 4.341-20.637 8.011l-87.976 44.743c14.256 30.778 34.446 58.246 59.102 80.938l47.869-42.923s85.514 2.208 113.904 4.715c22.925 2.024 45.89-3.182 63.992-17.392l76.257-60.021c6.971-5.473 9.334-14.983 5.734-23.082-3.96-8.912-13.929-13.485-23.264-10.674z" fill="#ffdecf"/></g><g fill="#ffcdbe"><path d="m278.918 306.536c6.673-2.992 10.025-10.525 7.78-17.485-2.28-7.067-9.577-11.224-16.819-9.58l-13.515 3.067v34.108z"/><path d="m390.443 305.708c-3.959-8.91-13.929-13.482-23.264-10.671l-90.466 48.314c-6.25 3.338-13.334 4.729-20.348 4.037v59.192c18.838-.444 37.125-6.022 52.088-17.769l76.256-60.021c6.971-5.472 9.334-14.982 5.734-23.082z"/></g><g><path d="m116.724 107.229h278.551v142.771h-278.551z" fill="#2fddd0"/></g><g><path d="m256 107.197h139.276v142.771h-139.276z" fill="#11bfae"/></g><g><path d="m256 223.125s-50.228-33.696-50.228-60.719c0-14.542 11.789-26.331 26.331-26.331 10.588 0 19.715 6.248 23.897 15.258l7.79 28.267z" fill="#abf4f0"/></g><g><path d="m306.228 162.403c0-14.542-11.789-26.205-26.331-26.33-10.292-.088-19.183 5.69-23.897 15.26v71.792c4.864-3.722 50.228-35.042 50.228-60.722z" fill="#2fddd0"/></g><g><g><circle cx="161.521" cy="178.614" fill="#abf4f0" r="21.937"/></g><g><circle cx="350.479" cy="178.614" fill="#2fddd0" r="21.937"/></g></g></g></svg>