<svg id="Layer_2" data-name="Layer 2" xmlns="http://www.w3.org/2000/svg" viewBox="0 0 430.07 92.75"><defs><style>.cls-1{fill:#131313;}.cls-2{fill:#00e08e;}.cls-3{fill:#fff;}</style></defs><path class="cls-1" d="M1027.5,854.89h-10.83V807.1h10.83v7a20.32,20.32,0,0,1,16.66-8c10.92,0,17.34,7.34,17.34,18.68v30.11h-10.84v-28c0-7.26-3.83-11.1-9.73-11.1-8.09,0-13.42,7.25-13.42,18.18ZM1068.57,831c0-14.92,9.6-24.93,23.83-24.93s23.83,10,23.83,24.93-9.59,24.86-23.83,24.86S1068.57,845.88,1068.57,831Zm36.57,0c0-9.17-5.24-15.34-12.74-15.34s-12.73,6.17-12.73,15.34,5.25,15.27,12.75,15.27,12.75-6.18,12.75-15.27Zm29.43,23.86h-10.86V807.1h10.84v7c3.41-5.26,8.42-8,14.16-8a15.31,15.31,0,0,1,14.5,9.42,19.6,19.6,0,0,1,16.66-9.42c9.16,0,15.58,6.51,15.58,17.6v31.2h-10.82V826.28c0-6.92-3-10.59-8.5-10.59-7.25,0-11.33,6.6-11.33,18.27v20.93H1154V826.28c0-7.17-3.17-10.59-8.25-10.59-7,0-11.15,6.76-11.15,18.27Zm70.88-47.79h10.84v47.79h-10.84ZM1223.79,831c0-14.84,9.84-24.85,23.75-24.85,10.66,0,18.41,5.67,21.66,15.09l-10.08,4.18c-1.33-6.26-5.33-9.67-11.33-9.67-7.83,0-12.9,6-12.9,15.26s5.07,15.34,13,15.34c5.92,0,9.92-3.42,11.26-9.68l10,4.18c-3.5,9.84-11,15.1-21.42,15.1C1233.62,855.9,1223.79,845.88,1223.79,831ZM1275,842.3l9.83-4.5c.67,5.25,6.08,9,12.33,9,4.83,0,8.58-2.25,8.58-5.26,0-8.1-28.74-4.67-28.74-21,0-9,7.91-14.17,18.75-14.17,10.66,0,18.58,5.1,20.49,11.84l-10.34,4.5c-.34-3.92-4.5-7.26-10.42-7.26-4.33,0-7.66,1.83-7.66,4.42,0,7.76,28.83,4.17,28.83,21.27,0,8.67-7.67,14.76-19.75,14.76C1285,855.9,1276.85,850.55,1275,842.3Z" transform="translate(-886.6 -784.63)"/><path class="cls-2" d="M907.45,784.66a21.15,21.15,0,0,0-20.85,21.12v50.44a21.14,21.14,0,0,0,36.1,14.95l14.36-14.36a21.14,21.14,0,0,0,42.28-.59V805.78a21.14,21.14,0,0,0-36.1-14.95l-14.36,14.35A21.15,21.15,0,0,0,907.45,784.66Z" transform="translate(-886.6 -784.63)"/><path class="cls-3" d="M979.34,805.79A21.16,21.16,0,1,1,943,791.07l.25-.25a10,10,0,0,1,1-.89c.2-.19.41-.36.62-.53s.54-.43.84-.65.58-.43.89-.63a21.33,21.33,0,0,1,9.59-3.39,22.57,22.57,0,0,1,4.11,0l1,.13c.68.11,1.36.25,2,.4a23.12,23.12,0,0,1,3,1c.5.2,1,.43,1.46.66s.92.5,1.37.76.9.56,1.32.87.81.6,1.22.92.55.47.82.73a7.18,7.18,0,0,1,.57.54,4,4,0,0,1,.35.36,12.21,12.21,0,0,1,.84.92c.2.22.38.44.54.65s.12.13.17.2c.26.33.51.67.74,1,.06.09.12.18.17.27.26.39.51.78.73,1.18s.4.71.57,1.08c.09.17.18.34.26.53.17.38.34.77.5,1.17s.35,1,.51,1.45a12.92,12.92,0,0,1,.35,1.36c0,.11.06.2.08.31.06.3.12.61.17.91,0,.14.06.28.08.42s0,.28.06.43c.05.34.09.68.11,1,0,.11,0,.22,0,.33A13.26,13.26,0,0,1,979.34,805.79Z" transform="translate(-886.6 -784.63)"/></svg>